<svg width="18" height="18" viewBox="0 0 18 18" fill="none" xmlns="http://www.w3.org/2000/svg">
<g clip-path="url(#clip0_68_99)">
<path d="M13.5546 10.9586C13.4676 10.6642 13.3622 10.408 13.2383 10.1904C13.1145 9.97265 12.9372 9.76021 12.706 9.55242C12.4751 9.34474 12.2673 9.17748 12.0832 9.05033C11.8991 8.92307 11.6462 8.78079 11.3247 8.62332C11.0035 8.46587 10.749 8.34871 10.5616 8.27166C10.374 8.19472 10.1027 8.08924 9.74772 7.9553C9.43301 7.83483 9.19869 7.74272 9.04452 7.67915C8.89053 7.6155 8.68802 7.52515 8.43688 7.40789C8.18585 7.2908 7.99833 7.18694 7.87441 7.09659C7.75053 7.00624 7.61832 6.89577 7.47766 6.7652C7.33699 6.63464 7.23824 6.49567 7.18128 6.34836C7.12446 6.20101 7.09596 6.04026 7.09596 5.86614C7.09596 5.41088 7.29678 5.0391 7.69857 4.75123C8.10039 4.46337 8.61944 4.31936 9.25566 4.31936C9.53677 4.31936 9.82337 4.35782 10.1145 4.4349C10.4056 4.51199 10.6551 4.59882 10.8627 4.69599C11.0705 4.79317 11.2662 4.90034 11.4505 5.01746C11.6346 5.13469 11.7652 5.22335 11.8423 5.28362C11.9193 5.34392 11.9681 5.38407 11.988 5.40419C12.0751 5.47114 12.1653 5.49454 12.2591 5.47452C12.3595 5.46784 12.4366 5.41418 12.4903 5.31384L13.304 3.84728C13.3844 3.71341 13.3678 3.58615 13.2538 3.46555C13.2136 3.42537 13.1636 3.37854 13.1029 3.32492C13.0428 3.2713 12.9121 3.17423 12.7111 3.03354C12.5102 2.89294 12.2976 2.76738 12.0734 2.65687C11.849 2.54646 11.5576 2.43423 11.1993 2.32045C10.8412 2.20649 10.4711 2.12955 10.0893 2.0894V0.32143C10.0893 0.227739 10.0592 0.150688 9.99914 0.0903847C9.93891 0.0302221 9.86186 0 9.76795 0H8.4118C8.32475 0 8.24943 0.0317701 8.18582 0.0954159C8.12221 0.159062 8.0904 0.234353 8.0904 0.32143V2.12951C7.039 2.33034 6.18518 2.77902 5.52891 3.47547C4.87272 4.17195 4.5445 4.9821 4.5445 5.90632C4.5445 6.18085 4.57307 6.44201 4.62999 6.68967C4.68685 6.93753 4.75721 7.1602 4.84095 7.35772C4.92461 7.55538 5.04353 7.74951 5.19753 7.94042C5.35152 8.13125 5.49721 8.29534 5.63446 8.43255C5.77178 8.56973 5.95093 8.71208 6.17184 8.85936C6.3929 9.00677 6.58208 9.12573 6.73948 9.21608C6.89693 9.30614 7.10616 9.41028 7.36725 9.5272C7.62841 9.64446 7.83441 9.73309 7.9851 9.7935C8.13579 9.85369 8.34168 9.9375 8.60294 10.0444C8.96452 10.185 9.23243 10.2939 9.40652 10.371C9.58074 10.448 9.80166 10.5551 10.0697 10.6924C10.3375 10.8296 10.5333 10.9552 10.6572 11.0691C10.7811 11.1829 10.8932 11.3236 10.9938 11.4909C11.0943 11.6583 11.1446 11.8358 11.1446 12.0234C11.1446 12.5524 10.9387 12.9608 10.5267 13.2485C10.115 13.5366 9.63767 13.6805 9.09533 13.6805C8.84778 13.6805 8.59981 13.6539 8.35213 13.6004C7.48156 13.426 6.66796 13.0075 5.91125 12.3446L5.89116 12.3245C5.83085 12.251 5.75046 12.2208 5.65012 12.2343C5.54295 12.2477 5.4659 12.2879 5.41907 12.355L4.38442 13.7109C4.28393 13.8448 4.29072 13.9821 4.40454 14.1227C4.43807 14.1629 4.49665 14.2233 4.58031 14.3036C4.66419 14.3841 4.81991 14.5094 5.04747 14.6805C5.2751 14.8514 5.5229 15.0119 5.79081 15.1628C6.0587 15.3134 6.39849 15.4623 6.81041 15.6097C7.22233 15.7568 7.64914 15.8606 8.09114 15.9208V17.6786C8.09114 17.7658 8.12298 17.8411 8.18655 17.9048C8.2502 17.9685 8.32549 18.0001 8.41253 18.0001H9.76869C9.86259 18.0001 9.93965 17.9701 9.99984 17.9099C10.06 17.8497 10.09 17.7726 10.09 17.6787V15.9208C11.155 15.7468 12.0205 15.2897 12.6867 14.5497C13.353 13.8097 13.6863 12.9274 13.6863 11.9029C13.6859 11.5682 13.6425 11.2534 13.5546 10.9586Z" fill="white"/>
</g>
<defs>
<clipPath id="clip0_68_99">
<rect width="18" height="18" fill="white"/>
</clipPath>
</defs>
</svg>
