<svg width="20" height="14" viewBox="0 0 20 14" fill="none" xmlns="http://www.w3.org/2000/svg">
<path fill-rule="evenodd" clip-rule="evenodd" d="M10 0.4375C5.45455 0.4375 1.57273 3.15875 0 7C1.57273 10.8413 5.45455 13.5625 10 13.5625C14.5455 13.5625 18.4273 10.8413 20 7C18.4273 3.15875 14.5455 0.4375 10 0.4375ZM10 11.375C7.49091 11.375 5.45455 9.415 5.45455 7C5.45455 4.585 7.49091 2.625 10 2.625C12.5091 2.625 14.5455 4.585 14.5455 7C14.5455 9.415 12.5091 11.375 10 11.375ZM10 4.375C8.49091 4.375 7.27273 5.5475 7.27273 7C7.27273 8.4525 8.49091 9.625 10 9.625C11.5091 9.625 12.7273 8.4525 12.7273 7C12.7273 5.5475 11.5091 4.375 10 4.375Z" fill="white"/>
</svg>
