<svg width="18" height="18" viewBox="0 0 18 18" fill="none" xmlns="http://www.w3.org/2000/svg">
<g clip-path="url(#clip0_162_63)">
<path d="M15.804 3.61785C15.5957 3.35425 15.3723 3.10304 15.1347 2.86549C14.8974 2.62768 14.6462 2.40418 14.3823 2.19616C12.7142 0.877266 10.6198 0.216819 8.49688 0.340206C6.37392 0.463592 4.37017 1.36222 2.86605 2.86549C2.62822 3.10278 2.40471 3.35401 2.19672 3.61785C0.987107 5.151 0.329235 7.04693 0.329235 8.99981C0.329235 10.9527 0.987107 12.8486 2.19672 14.3818C2.40471 14.6456 2.62822 14.8968 2.86605 15.1341C3.10352 15.3714 3.35437 15.5949 3.6174 15.8035C5.15074 17.0131 7.04684 17.671 8.99987 17.671C10.9529 17.671 12.849 17.0131 14.3823 15.8035C14.6462 15.5954 14.8974 15.3719 15.1347 15.1341C16.638 13.63 17.5366 11.6263 17.66 9.50331C17.7834 7.38035 17.1229 5.28599 15.804 3.61785V3.61785ZM14.4542 14.4537C14.2351 14.6732 14.0028 14.8791 13.7586 15.0703L11.8853 12.87C11.0511 13.4901 10.0393 13.825 8.99987 13.825C7.96044 13.825 6.94866 13.4901 6.11447 12.87L4.24116 15.0703C3.75265 14.6871 3.31204 14.2465 2.92883 13.758L5.12922 11.8847C4.50955 11.0503 4.17497 10.0386 4.17497 8.99931C4.17497 7.95999 4.50955 6.94829 5.12922 6.11391L2.92883 4.24161C3.31238 3.75275 3.75332 3.31181 4.24218 2.92827L6.11548 5.12966C6.94958 4.50977 7.96116 4.17503 9.00038 4.17503C10.0396 4.17503 11.0512 4.50977 11.8853 5.12966L13.7576 2.92928C14.2467 3.3121 14.6877 3.75275 15.0709 4.24161L12.8705 6.11391C13.4904 6.94838 13.8252 7.96028 13.8252 8.99981C13.8252 10.0393 13.4904 11.0512 12.8705 11.8857L15.0709 13.758C14.8794 14.002 14.6735 14.2343 14.4542 14.4537V14.4537Z" fill="white"/>
</g>
<defs>
<clipPath id="clip0_162_63">
<rect width="18" height="18" fill="white"/>
</clipPath>
</defs>
</svg>
