<svg width="12" height="14" viewBox="0 0 12 14" fill="none" xmlns="http://www.w3.org/2000/svg">
<g clip-path="url(#clip0_85_43)">
<path fill-rule="evenodd" clip-rule="evenodd" d="M2 13.5C3.1 13.5 4 12.6321 4 11.5714V1.92857C4 0.867857 3.1 0 2 0C0.9 0 0 0.867857 0 1.92857V11.5714C0 12.6321 0.9 13.5 2 13.5ZM8 1.92857V11.5714C8 12.6321 8.9 13.5 10 13.5C11.1 13.5 12 12.6321 12 11.5714V1.92857C12 0.867857 11.1 0 10 0C8.9 0 8 0.867857 8 1.92857Z" fill="white"/>
</g>
<defs>
<clipPath id="clip0_85_43">
<rect width="12" height="13.5" fill="white"/>
</clipPath>
</defs>
</svg>
